<svg version="1.1" id="Layer_1" xmlns="http://www.w3.org/2000/svg" xmlns:xlink="http://www.w3.org/1999/xlink" x="0px" y="0px"
	 width="100%" viewBox="0 0 563 568" enable-background="new 0 0 563 568" xml:space="preserve">
<path fill="#FEFEFE" opacity="1.000000" stroke="none" 
	d="
M564.000000,217.000000 
	C564.000000,334.666656 564.000000,451.833282 564.000000,569.000000 
	C376.333374,569.000000 188.666733,569.000000 1.000082,569.000000 
	C1.000055,379.666718 1.000055,190.333450 1.000027,1.000133 
	C188.666580,1.000088 376.333160,1.000088 563.999878,1.000044 
	C564.000000,72.833336 564.000000,144.666672 564.000000,217.000000 
M479.522400,189.905350 
	C479.709045,189.605667 479.895691,189.305984 480.005554,189.005554 
	C480.005554,189.005554 480.007324,189.082291 480.519012,188.902161 
	C480.706390,188.603424 480.893768,188.304688 481.010742,188.007309 
	C481.010742,188.007309 481.025879,188.076096 481.538483,187.889572 
	C481.861420,187.459900 482.184326,187.030212 482.539734,186.490311 
	C482.539734,186.490311 482.653625,186.474930 483.199829,186.154694 
	C484.122162,185.279190 485.044495,184.403671 486.638458,183.951141 
	C491.981201,186.301590 497.286957,188.743286 502.693298,190.936996 
	C504.011017,191.471680 505.659119,191.192093 507.155334,191.286880 
	C507.101166,189.900085 507.271149,188.460175 506.957153,187.134933 
	C504.532196,176.900635 501.996857,166.692551 499.529205,156.468262 
	C497.492004,148.027634 495.500519,139.575958 493.387726,130.704941 
	C474.401367,141.170578 456.158020,151.226669 436.985107,161.795135 
	C445.737396,165.693237 453.406219,169.108765 461.609344,172.762283 
	C454.538696,181.960098 448.010620,190.830887 441.058380,199.355804 
	C436.797424,204.580627 432.350494,209.845154 427.158081,214.073990 
	C419.415100,220.380142 411.005646,225.882675 402.763153,231.557724 
	C387.049835,242.376495 371.463989,253.402863 355.412170,263.699066 
	C346.100800,269.671722 336.079895,274.575745 326.206818,279.625336 
	C314.855713,285.430817 303.315125,290.865845 291.895386,296.443024 
	C293.642426,301.156372 296.170258,302.448395 299.778015,300.791901 
	C306.788910,297.572784 313.743469,294.220947 320.835144,291.190186 
	C331.312866,286.712341 341.944794,282.593140 352.394897,278.053802 
	C356.070221,276.457306 359.309052,273.882874 362.915466,272.094269 
	C368.075897,269.534912 373.487885,267.476776 378.613281,264.854431 
	C384.060303,262.067474 389.437683,259.091095 394.598602,255.809235 
	C405.659485,248.775543 416.799652,241.824966 427.453705,234.205978 
	C436.090240,228.029770 444.131989,221.008575 452.309692,214.208389 
	C458.300079,209.227081 464.083130,203.996414 470.597595,198.695099 
	C473.096252,196.143677 475.594879,193.592239 478.020935,191.021667 
	C478.020935,191.021667 478.015961,191.096573 478.537231,190.923798 
	C478.721161,190.619324 478.905090,190.314835 479.008667,190.008850 
	C479.008667,190.008850 479.011078,190.089188 479.522400,189.905350 
M462.017273,475.015625 
	C462.017273,475.015625 462.020172,475.089752 462.539276,474.922882 
	C462.722839,474.620911 462.906433,474.318939 463.014221,474.013550 
	C463.014221,474.013550 463.016846,474.089325 463.540375,473.927124 
	C463.724579,473.623627 463.908813,473.320129 464.014008,473.013977 
	C464.014008,473.013977 464.017517,473.093018 464.540558,472.927185 
	C464.722992,472.622620 464.905426,472.318054 465.011597,472.011566 
	C465.011597,472.011566 465.014740,472.087708 465.525665,471.906616 
	C465.707947,471.606232 465.890259,471.305847 466.002808,471.004211 
	C466.002808,471.004211 466.007599,471.073792 466.507751,470.885529 
	C466.689026,470.589874 466.870300,470.294220 466.996826,469.995453 
	C466.996826,469.995453 467.011230,470.048401 467.592163,469.783478 
	C468.088226,468.893036 468.584290,468.002594 469.736115,466.887817 
	C476.117584,458.789612 482.908936,450.975403 488.769928,442.516541 
	C495.141724,433.320557 501.015198,423.729523 506.462006,413.952026 
	C520.879944,388.070526 529.655396,360.225220 532.853577,330.837341 
	C534.470886,315.975616 535.552307,300.855347 534.688293,285.979065 
	C533.790833,270.528717 530.252258,255.231781 527.990417,239.099991 
	C525.653992,228.387558 523.654907,217.562820 517.612671,207.253967 
	C515.918396,208.675873 514.525024,209.721085 513.274231,210.915634 
	C506.374451,217.505035 499.527771,224.150055 492.626740,230.738129 
	C487.102905,236.011490 481.527527,241.230865 475.260620,247.075684 
	C475.136780,247.889343 474.904938,248.702957 474.904541,249.516663 
	C474.879456,301.008026 474.873230,352.499420 474.451050,404.524933 
	C467.085052,412.983795 459.719086,421.442657 452.098358,429.001862 
	C452.087219,380.014038 452.085999,331.026184 452.020905,282.038422 
	C452.018768,280.428223 451.367340,278.818848 450.089447,277.065826 
	C434.052551,277.120148 418.015686,277.174469 401.118347,277.392365 
	C401.029602,279.043030 400.864105,280.693634 400.863342,282.344330 
	C400.842560,327.263397 400.872650,372.182465 400.813751,417.101471 
	C400.792389,433.398804 400.565033,449.695862 399.875031,466.309082 
	C393.647583,469.504425 387.442749,472.745636 381.164093,475.836914 
	C380.378571,476.223694 379.202881,475.818054 378.181793,475.349335 
	C378.181793,475.349335 377.936584,474.994873 378.050293,474.062622 
	C378.046112,424.529419 378.050537,374.996246 377.994812,325.463104 
	C377.993195,324.026154 377.355713,322.589935 376.083984,321.018890 
	C360.723755,321.014893 345.363434,320.987030 330.003479,321.050476 
	C328.725372,321.055756 327.449829,321.677246 326.025360,322.937775 
	C326.010651,377.895294 325.995941,432.852783 325.226288,487.967041 
	C319.349976,488.617432 313.480072,489.341492 307.591827,489.854858 
	C306.441193,489.955170 305.219269,489.238434 304.075012,487.983521 
	C304.058472,453.994598 304.055664,420.005676 303.982880,386.016876 
	C303.979401,384.405212 303.354706,382.794830 302.087402,381.056213 
	C285.487030,381.056213 268.886658,381.056213 251.936569,381.056213 
	C251.936569,415.000244 251.936569,448.453705 251.105896,481.972626 
	C247.412079,481.310608 243.570007,481.087006 240.054352,479.898102 
	C231.975357,477.166077 223.721924,474.623566 216.149994,470.795990 
	C205.160461,465.240845 194.624268,458.760864 184.079636,452.370209 
	C180.816101,450.392365 178.130295,447.448975 175.221588,444.900177 
	C166.373947,437.147308 157.328888,429.600769 148.801163,421.509644 
	C144.386597,417.321106 140.903000,412.151367 138.061829,407.243927 
	C139.702652,407.379944 141.363785,407.751984 142.980942,407.612915 
	C152.016068,406.835876 161.040573,405.935211 170.888229,405.035828 
	C176.482285,403.513519 182.441742,402.756653 187.589447,400.299316 
	C196.537003,396.028046 205.744080,391.667847 213.441711,385.575317 
	C222.514496,378.394318 230.720093,369.846405 238.113647,360.908356 
	C243.224930,354.729370 246.574890,347.012939 250.259460,339.753876 
	C255.246552,329.928711 259.331177,319.738708 260.507416,308.033783 
	C260.897186,305.579895 261.632416,303.123779 261.616425,300.672546 
	C261.549713,290.433960 261.257324,280.196899 261.134918,269.114594 
	C260.784424,267.534882 260.285950,265.971863 260.105743,264.372986 
	C257.603516,242.172516 247.170074,223.777588 232.077911,207.984650 
	C222.734802,198.207718 210.230896,192.682159 198.440598,186.496216 
	C192.007599,183.121063 184.695160,181.413071 177.762711,179.001022 
	C167.120590,175.298248 156.715927,171.333023 147.195984,164.930588 
	C135.550156,157.098480 123.952362,149.359497 114.442558,138.896271 
	C111.522636,135.683624 108.502281,132.562225 105.075340,128.917725 
	C98.403374,136.147476 92.439049,142.733139 86.340683,149.192230 
	C74.822334,161.391937 65.163834,175.038483 58.010620,190.074326 
	C50.285774,206.311691 43.600208,223.101898 37.480915,240.019745 
	C34.475681,248.328186 33.774948,257.470184 31.515068,266.806915 
	C29.239847,283.817078 27.938599,300.853210 30.011736,318.824829 
	C30.312611,319.894958 30.841156,320.956848 30.880354,322.036469 
	C31.511013,339.407074 35.560417,356.223206 41.217278,372.410645 
	C46.585896,387.773285 53.768913,402.546234 60.784058,417.278503 
	C70.863831,438.446625 85.772339,456.291260 101.740433,473.144501 
	C116.750298,488.986359 133.461304,502.948822 152.838867,513.298706 
	C165.085968,519.840088 177.310104,526.562927 190.069458,531.964294 
	C200.795959,536.505127 212.174606,539.653564 223.466354,542.660645 
	C231.460236,544.789490 239.790848,545.653809 248.346390,547.795410 
	C255.560577,548.476379 262.774750,549.157288 270.917603,549.983765 
	C282.317719,549.667480 293.784698,550.009094 305.099945,548.858337 
	C317.554596,547.591675 329.879791,545.011414 342.238251,542.869812 
	C345.216003,542.353882 348.160736,541.477539 351.018646,540.475891 
	C356.732910,538.473083 362.407135,536.346558 368.042877,534.131226 
	C378.194550,530.140808 388.573853,526.597656 398.353577,521.832275 
	C406.995331,517.621399 415.349640,512.547058 423.113251,506.872253 
	C434.432739,498.598297 445.109192,489.444672 456.667603,480.552887 
	C458.139038,479.048462 459.610474,477.544037 461.013763,476.015137 
	C461.013763,476.015137 461.017517,476.087402 461.553497,475.946930 
	C461.732758,475.638245 461.912018,475.329559 462.017273,475.015625 
M256.318939,154.609787 
	C256.318939,154.609787 256.511383,154.780014 256.810669,155.358459 
	C257.980377,157.523590 259.150055,159.688705 260.319733,161.853836 
	C260.721252,161.715958 261.122772,161.578079 261.524261,161.440201 
	C260.655853,154.794388 259.787415,148.148575 259.029755,140.578278 
	C256.148560,128.050583 254.232849,115.191002 250.077103,103.101433 
	C246.821289,93.629944 241.912689,84.219559 235.694855,76.408806 
	C228.789978,67.735001 221.225357,59.114765 210.372238,54.382870 
	C201.353287,50.450653 193.003983,44.933990 183.894058,41.274166 
	C176.486526,38.298267 168.438690,36.820747 160.586960,35.073616 
	C153.172302,33.423737 145.627090,32.369446 138.171585,30.890354 
	C134.878723,30.237087 131.701813,28.897663 128.394989,28.476387 
	C127.360298,28.344572 125.135269,30.119492 125.051483,31.151251 
	C124.446999,38.595211 124.105873,46.069569 123.957672,53.539772 
	C123.610970,71.015717 127.874886,87.526344 135.474503,103.106323 
	C144.283218,121.165092 157.575272,135.279724 174.380768,146.341415 
	C192.690414,158.393188 213.191925,163.750931 234.447586,166.829834 
	C237.757416,167.309250 241.886337,169.046188 245.297318,165.663971 
	C228.411758,132.324539 203.798279,105.682907 176.626236,81.027817 
	C211.917328,95.089493 236.785919,120.639305 255.616837,153.377777 
	C255.814316,153.711014 256.011780,154.044235 256.318939,154.609787 
M442.943298,59.059811 
	C442.897064,49.046291 442.850800,39.032772 442.954712,28.172316 
	C442.533173,24.226437 442.111633,20.280556 441.575531,15.262505 
	C437.894470,15.848132 434.414124,16.475403 430.912384,16.941727 
	C425.618317,17.646723 420.252594,17.947680 415.022858,18.963457 
	C409.952667,19.948246 405.076965,21.929554 400.008484,22.928703 
	C385.620850,25.764925 372.101227,31.136923 358.956451,37.311897 
	C345.298737,43.727806 332.365387,51.234882 320.764587,61.340248 
	C308.302216,72.196091 298.225586,84.538933 291.136505,99.249565 
	C279.325195,123.759399 276.284821,150.009048 277.046722,176.855026 
	C277.124756,179.604584 278.218079,182.325317 279.146362,186.404526 
	C283.020782,179.266937 285.843506,173.618790 289.075287,168.215286 
	C294.276672,159.518539 299.313446,150.669052 305.237366,142.475220 
	C310.349670,135.403992 316.481934,129.047867 322.376160,122.569290 
	C331.926117,112.072556 342.209045,102.342308 353.973114,94.325294 
	C363.460236,87.859993 372.911530,81.309067 382.730896,75.379341 
	C387.118988,72.729454 391.570007,69.023102 398.239136,70.433540 
	C356.858948,103.695099 320.713135,140.730896 297.150360,188.658966 
	C299.615234,188.511566 301.598785,187.553421 303.691467,187.108780 
	C312.093262,185.323669 320.611053,184.022827 328.928497,181.920074 
	C337.037018,179.870087 345.492706,178.112701 352.834808,174.350891 
	C365.607666,167.806549 378.140594,160.522873 389.834229,152.224747 
	C400.069702,144.961380 409.941589,136.860443 416.785431,125.830132 
	C421.169708,118.763992 426.704498,112.339661 430.498810,104.994926 
	C437.751923,90.954865 441.529755,75.766052 442.943298,59.059811 
z"/>
<path fill="#054E78" opacity="1.000000" stroke="none" 
	d="
M527.868652,239.867752 
	C530.252258,255.231781 533.790833,270.528717 534.688293,285.979065 
	C535.552307,300.855347 534.470886,315.975616 532.853577,330.837341 
	C529.655396,360.225220 520.879944,388.070526 506.462006,413.952026 
	C501.015198,423.729523 495.141724,433.320557 488.769928,442.516541 
	C482.908936,450.975403 476.117584,458.789612 469.095093,467.089844 
	C467.973114,468.210724 467.492188,469.129578 467.011230,470.048401 
	C467.011230,470.048401 466.996826,469.995453 466.775879,470.092682 
	C466.372498,470.484528 466.190033,470.779175 466.007599,471.073792 
	C466.007599,471.073792 466.002808,471.004211 465.785583,471.099426 
	C465.383850,471.492371 465.199310,471.790039 465.014740,472.087708 
	C465.014740,472.087708 465.011597,472.011566 464.793549,472.102600 
	C464.389496,472.493408 464.203491,472.793213 464.017517,473.093018 
	C464.017517,473.093018 464.014008,473.013977 463.797394,473.104919 
	C463.392822,473.493713 463.204834,473.791534 463.016846,474.089325 
	C463.016846,474.089325 463.014221,474.013550 462.795166,474.102448 
	C462.390808,474.490814 462.205505,474.790283 462.020172,475.089752 
	C462.020172,475.089752 462.017273,475.015625 461.793762,475.099609 
	C461.386017,475.484863 461.201752,475.786133 461.017517,476.087402 
	C461.017517,476.087402 461.013763,476.015137 460.705292,476.027679 
	C458.951141,477.582153 457.505493,479.124084 456.059814,480.666046 
	C445.109192,489.444672 434.432739,498.598297 423.113251,506.872253 
	C415.349640,512.547058 406.995331,517.621399 398.353577,521.832275 
	C388.573853,526.597656 378.194550,530.140808 368.042877,534.131226 
	C362.407135,536.346558 356.732910,538.473083 351.018646,540.475891 
	C348.160736,541.477539 345.216003,542.353882 342.238251,542.869812 
	C329.879791,545.011414 317.554596,547.591675 305.099945,548.858337 
	C293.784698,550.009094 282.317719,549.667480 270.192322,549.637085 
	C262.301727,548.554443 255.136444,547.818542 247.971146,547.082642 
	C239.790848,545.653809 231.460236,544.789490 223.466354,542.660645 
	C212.174606,539.653564 200.795959,536.505127 190.069458,531.964294 
	C177.310104,526.562927 165.085968,519.840088 152.838867,513.298706 
	C133.461304,502.948822 116.750298,488.986359 101.740433,473.144501 
	C85.772339,456.291260 70.863831,438.446625 60.784058,417.278503 
	C53.768913,402.546234 46.585896,387.773285 41.217278,372.410645 
	C35.560417,356.223206 31.511013,339.407074 30.880354,322.036469 
	C30.841156,320.956848 30.312611,319.894958 30.357544,318.094299 
	C31.146006,300.320831 31.588659,283.277893 32.031311,266.234955 
	C33.774948,257.470184 34.475681,248.328186 37.480915,240.019745 
	C43.600208,223.101898 50.285774,206.311691 58.010620,190.074326 
	C65.163834,175.038483 74.822334,161.391937 86.340683,149.192230 
	C92.439049,142.733139 98.403374,136.147476 105.075340,128.917725 
	C108.502281,132.562225 111.522636,135.683624 114.442558,138.896271 
	C123.952362,149.359497 135.550156,157.098480 147.195984,164.930588 
	C156.715927,171.333023 167.120590,175.298248 177.762711,179.001022 
	C184.695160,181.413071 192.007599,183.121063 198.440598,186.496216 
	C210.230896,192.682159 222.734802,198.207718 232.077911,207.984650 
	C247.170074,223.777588 257.603516,242.172516 260.105743,264.372986 
	C260.285950,265.971863 260.784424,267.534882 260.835114,269.796539 
	C260.694305,273.586884 261.054077,276.700439 260.974854,279.802765 
	C260.730438,289.378296 260.318481,298.949554 259.971558,308.522491 
	C259.331177,319.738708 255.246552,329.928711 250.259460,339.753876 
	C246.574890,347.012939 243.224930,354.729370 238.113647,360.908356 
	C230.720093,369.846405 222.514496,378.394318 213.441711,385.575317 
	C205.744080,391.667847 196.537003,396.028046 187.589447,400.299316 
	C182.441742,402.756653 176.482285,403.513519 170.030914,405.028748 
	C159.181717,405.342133 149.188629,405.633179 139.200348,406.042084 
	C138.448883,406.072876 137.731842,406.944305 136.998795,407.424927 
	C140.903000,412.151367 144.386597,417.321106 148.801163,421.509644 
	C157.328888,429.600769 166.373947,437.147308 175.221588,444.900177 
	C178.130295,447.448975 180.816101,450.392365 184.079636,452.370209 
	C194.624268,458.760864 205.160461,465.240845 216.149994,470.795990 
	C223.721924,474.623566 231.975357,477.166077 240.054352,479.898102 
	C243.570007,481.087006 247.412079,481.310608 251.782227,482.000153 
	C252.637192,482.033600 252.815826,482.039520 253.340256,482.210510 
	C269.845795,486.506592 286.308502,488.244476 303.211243,488.702148 
	C303.661926,488.827637 303.846069,488.863098 304.030243,488.898560 
	C305.219269,489.238434 306.441193,489.955170 307.591827,489.854858 
	C313.480072,489.341492 319.349976,488.617432 325.855316,487.879486 
	C326.644714,487.740601 326.805115,487.689270 327.362366,487.674683 
	C344.575470,483.734131 361.391724,479.756836 378.207977,475.779541 
	C379.202881,475.818054 380.378571,476.223694 381.164093,475.836914 
	C387.442749,472.745636 393.647583,469.504425 400.434723,466.064667 
	C401.301697,465.586395 401.609009,465.352570 402.280609,465.057678 
	C420.726685,455.638763 437.108185,443.886963 452.051270,429.937439 
	C452.147186,429.900085 452.353088,429.901489 452.353088,429.901489 
	C459.719086,421.442657 467.085052,412.983795 474.924225,404.103943 
	C475.606079,403.112274 475.814758,402.541565 476.292999,401.779480 
	C478.018036,399.562653 479.544769,397.584320 480.918518,395.504913 
	C510.957001,350.038483 526.120667,300.005341 526.965149,245.565063 
	C526.994690,243.661728 527.555481,241.766663 527.868652,239.867752 
M133.217743,196.984512 
	C123.118034,198.200226 112.880745,200.368301 104.315979,205.334610 
	C93.710426,211.484283 83.062973,218.041931 75.172867,228.254776 
	C68.929405,236.336227 63.248013,244.681046 59.435867,254.005692 
	C52.827370,270.170349 50.431740,287.024902 52.923454,304.548492 
	C55.722919,324.236511 63.450256,341.516754 76.756027,356.256226 
	C83.127586,363.314301 90.570145,369.085327 99.017578,373.499054 
	C109.484650,378.967987 119.607407,385.344330 132.069229,385.344238 
	C141.154053,385.344147 150.148697,388.274017 159.355011,385.350098 
	C166.139130,383.195465 173.851334,383.215454 180.027939,380.065979 
	C189.962433,375.000366 199.720428,369.003693 208.210632,361.815002 
	C224.757584,347.804657 233.800064,329.070282 238.717255,307.493164 
	C242.298828,296.977692 240.820358,286.328003 239.502106,275.692810 
	C239.467606,275.414612 238.683334,275.229340 238.023422,274.196594 
	C237.960358,273.368927 238.017624,272.510803 237.816696,271.718048 
	C232.219620,249.635193 221.669601,230.739227 203.251572,216.600891 
	C189.180939,205.799774 173.625656,198.926910 155.574631,196.183731 
	C148.334930,194.387909 141.130249,193.766205 133.217743,196.984512 
z"/>
<path fill="#18A54B" opacity="1.000000" stroke="none" 
	d="
M442.733521,59.977531 
	C441.529755,75.766052 437.751923,90.954865 430.498810,104.994926 
	C426.704498,112.339661 421.169708,118.763992 416.785431,125.830132 
	C409.941589,136.860443 400.069702,144.961380 389.834229,152.224747 
	C378.140594,160.522873 365.607666,167.806549 352.834808,174.350891 
	C345.492706,178.112701 337.037018,179.870087 328.928497,181.920074 
	C320.611053,184.022827 312.093262,185.323669 303.691467,187.108780 
	C301.598785,187.553421 299.615234,188.511566 297.150360,188.658966 
	C320.713135,140.730896 356.858948,103.695099 398.239136,70.433540 
	C391.570007,69.023102 387.118988,72.729454 382.730896,75.379341 
	C372.911530,81.309067 363.460236,87.859993 353.973114,94.325294 
	C342.209045,102.342308 331.926117,112.072556 322.376160,122.569290 
	C316.481934,129.047867 310.349670,135.403992 305.237366,142.475220 
	C299.313446,150.669052 294.276672,159.518539 289.075287,168.215286 
	C285.843506,173.618790 283.020782,179.266937 279.146362,186.404526 
	C278.218079,182.325317 277.124756,179.604584 277.046722,176.855026 
	C276.284821,150.009048 279.325195,123.759399 291.136505,99.249565 
	C298.225586,84.538933 308.302216,72.196091 320.764587,61.340248 
	C332.365387,51.234882 345.298737,43.727806 358.956451,37.311897 
	C372.101227,31.136923 385.620850,25.764925 400.008484,22.928703 
	C405.076965,21.929554 409.952667,19.948246 415.022858,18.963457 
	C420.252594,17.947680 425.618317,17.646723 430.912384,16.941727 
	C434.414124,16.475403 437.894470,15.848132 441.575531,15.262505 
	C442.111633,20.280556 442.533173,24.226437 442.629913,28.925156 
	C442.447937,39.777843 442.590729,49.877686 442.733521,59.977531 
z"/>
<path fill="#18A44B" opacity="1.000000" stroke="none" 
	d="
M255.488708,152.998291 
	C236.785919,120.639305 211.917328,95.089493 176.626236,81.027817 
	C203.798279,105.682907 228.411758,132.324539 245.297318,165.663971 
	C241.886337,169.046188 237.757416,167.309250 234.447586,166.829834 
	C213.191925,163.750931 192.690414,158.393188 174.380768,146.341415 
	C157.575272,135.279724 144.283218,121.165092 135.474503,103.106323 
	C127.874886,87.526344 123.610970,71.015717 123.957672,53.539772 
	C124.105873,46.069569 124.446999,38.595211 125.051483,31.151251 
	C125.135269,30.119492 127.360298,28.344572 128.394989,28.476387 
	C131.701813,28.897663 134.878723,30.237087 138.171585,30.890354 
	C145.627090,32.369446 153.172302,33.423737 160.586960,35.073616 
	C168.438690,36.820747 176.486526,38.298267 183.894058,41.274166 
	C193.003983,44.933990 201.353287,50.450653 210.372238,54.382870 
	C221.225357,59.114765 228.789978,67.735001 235.694855,76.408806 
	C241.912689,84.219559 246.821289,93.629944 250.077103,103.101433 
	C254.232849,115.191002 256.148560,128.050583 258.977783,141.376724 
	C258.942444,143.932266 259.066803,145.696548 258.950470,147.444794 
	C258.775085,150.080353 260.140900,153.279083 256.511383,154.780014 
	C256.511383,154.780014 256.318939,154.609787 256.449585,154.286362 
	C256.216400,153.641388 255.852554,153.319839 255.488708,152.998291 
z"/>
<path fill="#17A44C" opacity="1.000000" stroke="none" 
	d="
M378.194885,475.564453 
	C361.391724,479.756836 344.575470,483.734131 327.366455,487.241394 
	C326.981934,485.440094 326.996887,484.108826 326.997467,482.777588 
	C327.021576,429.191284 327.044342,375.604950 327.528625,322.009125 
	C344.312378,322.014618 360.634766,322.029633 376.973633,322.510254 
	C376.999146,371.748077 376.997833,420.520355 377.056000,469.292542 
	C377.058258,471.193665 377.630127,473.094116 377.936584,474.994873 
	C377.936584,474.994873 378.181793,475.349335 378.194885,475.564453 
z"/>
<path fill="#18A54B" opacity="1.000000" stroke="none" 
	d="
M527.929565,239.483871 
	C527.555481,241.766663 526.994690,243.661728 526.965149,245.565063 
	C526.120667,300.005341 510.957001,350.038483 480.918518,395.504913 
	C479.544769,397.584320 478.018036,399.562653 476.274963,401.314392 
	C475.983307,349.518555 475.979187,297.996399 475.975037,246.474213 
	C481.527527,241.230865 487.102905,236.011490 492.626740,230.738129 
	C499.527771,224.150055 506.374451,217.505035 513.274231,210.915634 
	C514.525024,209.721085 515.918396,208.675873 517.612671,207.253967 
	C523.654907,217.562820 525.653992,228.387558 527.929565,239.483871 
z"/>
<path fill="#064F7A" opacity="1.000000" stroke="none" 
	d="
M469.958588,198.876892 
	C464.083130,203.996414 458.300079,209.227081 452.309692,214.208389 
	C444.131989,221.008575 436.090240,228.029770 427.453705,234.205978 
	C416.799652,241.824966 405.659485,248.775543 394.598602,255.809235 
	C389.437683,259.091095 384.060303,262.067474 378.613281,264.854431 
	C373.487885,267.476776 368.075897,269.534912 362.915466,272.094269 
	C359.309052,273.882874 356.070221,276.457306 352.394897,278.053802 
	C341.944794,282.593140 331.312866,286.712341 320.835144,291.190186 
	C313.743469,294.220947 306.788910,297.572784 299.778015,300.791901 
	C296.170258,302.448395 293.642426,301.156372 291.895386,296.443024 
	C303.315125,290.865845 314.855713,285.430817 326.206818,279.625336 
	C336.079895,274.575745 346.100800,269.671722 355.412170,263.699066 
	C371.463989,253.402863 387.049835,242.376495 402.763153,231.557724 
	C411.005646,225.882675 419.415100,220.380142 427.158081,214.073990 
	C432.350494,209.845154 436.797424,204.580627 441.058380,199.355804 
	C448.010620,190.830887 454.538696,181.960098 461.609344,172.762283 
	C453.406219,169.108765 445.737396,165.693237 436.985107,161.795135 
	C456.158020,151.226669 474.401367,141.170578 493.387726,130.704941 
	C495.500519,139.575958 497.492004,148.027634 499.529205,156.468262 
	C501.996857,166.692551 504.532196,176.900635 506.957153,187.134933 
	C507.271149,188.460175 507.101166,189.900085 507.155334,191.286880 
	C505.659119,191.192093 504.011017,191.471680 502.693298,190.936996 
	C497.286957,188.743286 491.981201,186.301590 486.235809,183.490173 
	C484.773315,184.177780 483.713470,185.326355 482.653625,186.474930 
	C482.653625,186.474930 482.539734,186.490311 482.196045,186.451538 
	C481.576874,186.967209 481.301361,187.521652 481.025879,188.076096 
	C481.025879,188.076096 481.010742,188.007309 480.794617,188.103073 
	C480.388123,188.493317 480.197723,188.787811 480.007324,189.082306 
	C480.007324,189.082291 480.005554,189.005554 479.792236,189.103088 
	C479.389648,189.496796 479.200348,189.792984 479.011078,190.089188 
	C479.011078,190.089188 479.008667,190.008850 478.793823,190.103455 
	C478.391296,190.497559 478.203644,190.797058 478.015961,191.096573 
	C478.015961,191.096573 478.020935,191.021667 477.705322,191.033081 
	C474.912659,193.655289 472.435638,196.266098 469.958588,198.876892 
z"/>
<path fill="#017F09" opacity="1.000000" stroke="none" 
	d="
M401.916321,465.118744 
	C401.609009,465.352570 401.301697,465.586395 400.713074,465.906647 
	C400.565033,449.695862 400.792389,433.398804 400.813751,417.101471 
	C400.872650,372.182465 400.842560,327.263397 400.863342,282.344330 
	C400.864105,280.693634 401.029602,279.043030 401.544556,277.604187 
	C401.990753,278.207123 402.010712,278.598175 402.002869,279.458527 
	C402.005066,292.303070 402.035004,304.678375 402.038757,317.516388 
	C402.031036,328.633240 402.049500,339.287384 402.037170,350.330383 
	C402.026794,351.498505 402.047241,352.277710 402.042816,353.519348 
	C402.060059,368.318726 402.102173,382.655640 402.098938,397.233185 
	C402.053558,397.473785 402.071442,397.963135 402.046570,398.311584 
	C402.039612,399.125061 402.057556,399.590149 402.048096,400.462036 
	C402.036346,402.228760 402.051971,403.588684 402.037292,405.357971 
	C402.027191,406.861084 402.047363,407.954803 402.043030,409.437592 
	C402.038300,410.865356 402.058075,411.904083 402.044617,413.330933 
	C402.030365,414.497192 402.049347,415.275360 402.043640,416.516174 
	C402.038269,424.964935 402.057617,432.950958 402.048035,441.286133 
	C402.034790,442.101776 402.050446,442.568298 402.047974,443.267609 
	C402.029816,443.500427 402.062927,443.966309 402.032562,444.436096 
	C401.973572,451.643494 401.944946,458.381134 401.916321,465.118744 
z"/>
<path fill="#0C8111" opacity="1.000000" stroke="none" 
	d="
M327.067291,322.018646 
	C327.044342,375.604950 327.021576,429.191284 326.997467,482.777588 
	C326.996887,484.108826 326.981934,485.440094 326.969604,487.204651 
	C326.805115,487.689270 326.644714,487.740601 326.232788,487.801117 
	C325.995941,432.852783 326.010651,377.895294 326.322784,322.475342 
	C326.620209,322.012909 327.067291,322.018646 327.067291,322.018646 
z"/>
<path fill="#01820D" opacity="1.000000" stroke="none" 
	d="
M475.617828,246.774948 
	C475.979187,297.996399 475.983307,349.518555 476.005432,401.505798 
	C475.814758,402.541565 475.606079,403.112274 475.131348,403.836884 
	C474.873230,352.499420 474.879456,301.008026 474.904541,249.516663 
	C474.904938,248.702957 475.136780,247.889343 475.617828,246.774948 
z"/>
<path fill="#017E0F" opacity="1.000000" stroke="none" 
	d="
M377.993439,474.528748 
	C377.630127,473.094116 377.058258,471.193665 377.056000,469.292542 
	C376.997833,420.520355 376.999146,371.748077 376.991577,322.287476 
	C376.993042,321.599091 377.014740,321.153381 377.014740,321.153381 
	C377.355713,322.589935 377.993195,324.026154 377.994812,325.463104 
	C378.050537,374.996246 378.046112,424.529419 377.993439,474.528748 
z"/>
<path fill="#038316" opacity="1.000000" stroke="none" 
	d="
M451.018555,277.209106 
	C451.367340,278.818848 452.018768,280.428223 452.020905,282.038422 
	C452.085999,331.026184 452.087219,380.014038 452.225708,429.451660 
	C452.353088,429.901489 452.147186,429.900085 451.761200,429.641357 
	C451.254517,427.235352 451.029602,425.088196 451.028412,422.940887 
	C451.001770,374.955109 450.999847,326.969360 450.993103,278.687744 
	C451.001495,277.997650 451.010010,277.603394 451.018555,277.209106 
z"/>
<path fill="#1B8D20" opacity="1.000000" stroke="none" 
	d="
M252.994476,482.045441 
	C252.815826,482.039520 252.637192,482.033600 252.197571,481.967438 
	C251.936569,448.453705 251.936569,415.000244 251.936569,381.056213 
	C268.886658,381.056213 285.487030,381.056213 302.547150,381.336914 
	C303.006897,381.617615 302.977325,382.050537 302.511414,382.031250 
	C287.414764,382.010071 272.783813,381.974030 258.153503,382.052185 
	C256.440369,382.061340 254.730606,382.700348 253.012177,383.513000 
	C253.001541,416.667572 252.998001,449.356506 252.994476,482.045441 
z"/>
<path fill="#027F0E" opacity="1.000000" stroke="none" 
	d="
M302.977325,382.050537 
	C302.977325,382.050537 303.006897,381.617615 303.013123,381.400757 
	C303.354706,382.794830 303.979401,384.405212 303.982880,386.016876 
	C304.055664,420.005676 304.058472,453.994598 304.052612,488.441040 
	C303.846069,488.863098 303.661926,488.827637 303.253082,488.273834 
	C303.011139,452.838287 302.993866,417.921112 302.979675,382.765564 
	C302.982819,382.527222 302.977325,382.050537 302.977325,382.050537 
z"/>
<path fill="#1E9630" opacity="1.000000" stroke="none" 
	d="
M450.554016,277.137451 
	C451.010010,277.603394 451.001495,277.997650 450.525238,278.684875 
	C434.048553,278.981598 418.039581,278.985413 402.030640,278.989258 
	C402.010712,278.598175 401.990753,278.207123 401.974792,277.522430 
	C418.015686,277.174469 434.052551,277.120148 450.554016,277.137451 
z"/>
<path fill="#09224C" opacity="1.000000" stroke="none" 
	d="
M31.773190,266.520935 
	C31.588659,283.277893 31.146006,300.320831 30.426968,317.673401 
	C27.938599,300.853210 29.239847,283.817078 31.773190,266.520935 
z"/>
<path fill="#26365B" opacity="1.000000" stroke="none" 
	d="
M137.530304,407.334412 
	C137.731842,406.944305 138.448883,406.072876 139.200348,406.042084 
	C149.188629,405.633179 159.181717,405.342133 169.621155,405.049255 
	C161.040573,405.935211 152.016068,406.835876 142.980942,407.612915 
	C141.363785,407.751984 139.702652,407.379944 137.530304,407.334412 
z"/>
<path fill="#081B45" opacity="1.000000" stroke="none" 
	d="
M260.239502,308.278137 
	C260.318481,298.949554 260.730438,289.378296 260.974854,279.802765 
	C261.054077,276.700439 260.694305,273.586884 260.791473,270.218872 
	C261.257324,280.196899 261.549713,290.433960 261.616425,300.672546 
	C261.632416,303.123779 260.897186,305.579895 260.239502,308.278137 
z"/>
<path fill="#1A8D1A" opacity="1.000000" stroke="none" 
	d="
M376.549377,321.086121 
	C377.014740,321.153381 376.993042,321.599091 376.975098,321.821869 
	C360.634766,322.029633 344.312378,322.014618 327.528625,322.009125 
	C327.067291,322.018646 326.620209,322.012909 326.396667,322.012695 
	C327.449829,321.677246 328.725372,321.055756 330.003479,321.050476 
	C345.363434,320.987030 360.723755,321.014893 376.549377,321.086121 
z"/>
<path fill="#1F872B" opacity="1.000000" stroke="none" 
	d="
M256.661011,155.069244 
	C260.140900,153.279083 258.775085,150.080353 258.950470,147.444794 
	C259.066803,145.696548 258.942444,143.932266 258.922424,141.838959 
	C259.787415,148.148575 260.655853,154.794388 261.524261,161.440201 
	C261.122772,161.578079 260.721252,161.715958 260.319733,161.853836 
	C259.150055,159.688705 257.980377,157.523590 256.661011,155.069244 
z"/>
<path fill="#057F18" opacity="1.000000" stroke="none" 
	d="
M442.838409,59.518669 
	C442.590729,49.877686 442.447937,39.777843 442.554810,29.348625 
	C442.850800,39.032772 442.897064,49.046291 442.838409,59.518669 
z"/>
<path fill="#1F2642" opacity="1.000000" stroke="none" 
	d="
M248.158768,547.439026 
	C255.136444,547.818542 262.301727,548.554443 269.727966,549.564331 
	C262.774750,549.157288 255.560577,548.476379 248.158768,547.439026 
z"/>
<path fill="#1E2B50" opacity="1.000000" stroke="none" 
	d="
M470.278076,198.785995 
	C472.435638,196.266098 474.912659,193.655289 477.741608,191.042648 
	C475.594879,193.592239 473.096252,196.143677 470.278076,198.785995 
z"/>
<path fill="#242E53" opacity="1.000000" stroke="none" 
	d="
M456.363708,480.609467 
	C457.505493,479.124084 458.951141,477.582153 460.739349,476.039917 
	C459.610474,477.544037 458.139038,479.048462 456.363708,480.609467 
z"/>
<path fill="#1E2B50" opacity="1.000000" stroke="none" 
	d="
M482.926727,186.314819 
	C483.713470,185.326355 484.773315,184.177780 485.899994,183.278687 
	C485.044495,184.403671 484.122162,185.279190 482.926727,186.314819 
z"/>
<path fill="#242E53" opacity="1.000000" stroke="none" 
	d="
M467.301697,469.915955 
	C467.492188,469.129578 467.973114,468.210724 468.767181,467.202026 
	C468.584290,468.002594 468.088226,468.893036 467.301697,469.915955 
z"/>
<path fill="#1F872B" opacity="1.000000" stroke="none" 
	d="
M255.552765,153.188034 
	C255.852554,153.319839 256.216400,153.641388 256.394745,154.170197 
	C256.011780,154.044235 255.814316,153.711014 255.552765,153.188034 
z"/>
<path fill="#1E2B50" opacity="1.000000" stroke="none" 
	d="
M481.282166,187.982834 
	C481.301361,187.521652 481.576874,186.967209 482.179810,186.506653 
	C482.184326,187.030212 481.861420,187.459900 481.282166,187.982834 
z"/>
<path fill="#1E2B50" opacity="1.000000" stroke="none" 
	d="
M480.263184,188.992233 
	C480.197723,188.787811 480.388123,188.493317 480.829834,188.102386 
	C480.893768,188.304688 480.706390,188.603424 480.263184,188.992233 
z"/>
<path fill="#242E53" opacity="1.000000" stroke="none" 
	d="
M466.257690,470.979675 
	C466.190033,470.779175 466.372498,470.484528 466.803253,470.094238 
	C466.870300,470.294220 466.689026,470.589874 466.257690,470.979675 
z"/>
<path fill="#242E53" opacity="1.000000" stroke="none" 
	d="
M465.270203,471.997162 
	C465.199310,471.790039 465.383850,471.492371 465.820496,471.100067 
	C465.890259,471.305847 465.707947,471.606232 465.270203,471.997162 
z"/>
<path fill="#242E53" opacity="1.000000" stroke="none" 
	d="
M464.279022,473.010101 
	C464.203491,472.793213 464.389496,472.493408 464.831665,472.103577 
	C464.905426,472.318054 464.722992,472.622620 464.279022,473.010101 
z"/>
<path fill="#242E53" opacity="1.000000" stroke="none" 
	d="
M463.278625,474.008240 
	C463.204834,473.791534 463.392822,473.493713 463.836914,473.106262 
	C463.908813,473.320129 463.724579,473.623627 463.278625,474.008240 
z"/>
<path fill="#242E53" opacity="1.000000" stroke="none" 
	d="
M462.279724,475.006317 
	C462.205505,474.790283 462.390808,474.490814 462.833069,474.104156 
	C462.906433,474.318939 462.722839,474.620911 462.279724,475.006317 
z"/>
<path fill="#242E53" opacity="1.000000" stroke="none" 
	d="
M461.285492,476.017151 
	C461.201752,475.786133 461.386017,475.484863 461.830750,475.102234 
	C461.912018,475.329559 461.732758,475.638245 461.285492,476.017151 
z"/>
<path fill="#1E2B50" opacity="1.000000" stroke="none" 
	d="
M478.276611,191.010193 
	C478.203644,190.797058 478.391296,190.497559 478.833984,190.104202 
	C478.905090,190.314835 478.721161,190.619324 478.276611,191.010193 
z"/>
<path fill="#1E2B50" opacity="1.000000" stroke="none" 
	d="
M479.266724,189.997269 
	C479.200348,189.792984 479.389648,189.496796 479.830627,189.103455 
	C479.895691,189.305984 479.709045,189.605667 479.266724,189.997269 
z"/>
<path fill="#FDFDFD" opacity="1.000000" stroke="none" 
	d="
M238.159561,307.995087 
	C233.800064,329.070282 224.757584,347.804657 208.210632,361.815002 
	C199.720428,369.003693 189.962433,375.000366 180.027939,380.065979 
	C173.851334,383.215454 166.139130,383.195465 159.355011,385.350098 
	C150.148697,388.274017 141.154053,385.344147 132.069229,385.344238 
	C119.607407,385.344330 109.484650,378.967987 99.017578,373.499054 
	C90.570145,369.085327 83.127586,363.314301 76.756027,356.256226 
	C63.450256,341.516754 55.722919,324.236511 52.923454,304.548492 
	C50.431740,287.024902 52.827370,270.170349 59.435867,254.005692 
	C63.248013,244.681046 68.929405,236.336227 75.172867,228.254776 
	C83.062973,218.041931 93.710426,211.484283 104.315979,205.334610 
	C112.880745,200.368301 123.118034,198.200226 134.055145,196.983292 
	C141.924500,196.936279 148.956451,196.890503 155.988403,196.844727 
	C173.625656,198.926910 189.180939,205.799774 203.251572,216.600891 
	C221.669601,230.739227 232.219620,249.635193 237.816696,271.718048 
	C238.017624,272.510803 237.960358,273.368927 238.138641,275.017578 
	C238.222427,286.557404 238.190994,297.276245 238.159561,307.995087 
M79.822327,306.749634 
	C80.191353,307.849243 80.560379,308.948853 80.973846,310.816010 
	C86.229691,329.029114 98.176552,342.134521 114.116180,351.211487 
	C127.613724,358.897736 142.204666,361.783112 158.055313,357.338043 
	C165.000092,355.390472 171.727951,353.549011 178.115921,350.156342 
	C192.626022,342.449921 202.645447,330.455841 208.384476,315.610382 
	C217.033173,293.238312 214.586716,271.581177 200.059891,251.939041 
	C197.615646,248.634125 194.147781,246.088364 191.687851,242.792526 
	C186.326324,235.609146 178.081512,232.988495 170.757523,228.896393 
	C168.826416,227.817444 166.867371,226.302536 164.791565,226.049103 
	C153.183029,224.631912 141.734695,222.690582 129.845474,225.755859 
	C118.589012,228.657974 108.966705,233.738663 100.705315,241.604630 
	C97.174294,244.966644 93.729240,248.564056 90.959122,252.550659 
	C84.719101,261.530853 79.895882,271.205109 78.614601,283.023804 
	C79.044991,290.725861 79.475388,298.427917 79.950455,306.034424 
	C79.950455,306.034424 79.848579,306.007050 79.822327,306.749634 
z"/>
<path fill="#18A54B" opacity="1.000000" stroke="none" 
	d="
M402.002869,279.458527 
	C418.039581,278.985413 434.048553,278.981598 450.525330,278.980682 
	C450.999847,326.969360 451.001770,374.955109 451.028412,422.940887 
	C451.029602,425.088196 451.254517,427.235352 451.665283,429.678711 
	C437.108185,443.886963 420.726685,455.638763 402.280609,465.057678 
	C401.944946,458.381134 401.973572,451.643494 402.188782,444.355103 
	C402.433868,443.703400 402.565613,443.546661 402.538391,443.510956 
	C402.404053,443.334656 402.227661,443.190369 402.066101,443.034790 
	C402.050446,442.568298 402.034790,442.101776 402.331146,440.992401 
	C402.451538,432.250854 402.259949,424.152161 402.068329,416.053497 
	C402.049347,415.275360 402.030365,414.497192 402.292114,413.125458 
	C402.404388,411.370758 402.235962,410.209656 402.067535,409.048553 
	C402.047363,407.954803 402.027191,406.861084 402.295288,405.132874 
	C402.414246,403.017365 402.244873,401.536285 402.075500,400.055206 
	C402.057556,399.590149 402.039612,399.125061 402.253937,398.210266 
	C402.740295,397.562988 402.907257,397.308258 402.990265,396.527893 
	C402.995300,383.453796 403.032684,370.847931 402.957642,358.242706 
	C402.947327,356.512421 402.378143,354.785461 402.067688,353.056946 
	C402.047241,352.277710 402.026794,351.498505 402.323669,350.038300 
	C402.761505,340.635925 402.944946,331.914642 402.955841,323.193085 
	C402.958374,321.146973 402.377441,319.100159 402.064941,317.053650 
	C402.035004,304.678375 402.005066,292.303070 402.002869,279.458527 
z"/>
<path fill="#17A44B" opacity="1.000000" stroke="none" 
	d="
M302.976562,383.003937 
	C302.993866,417.921112 303.011139,452.838287 302.986572,488.183777 
	C286.308502,488.244476 269.845795,486.506592 253.340256,482.210510 
	C252.998001,449.356506 253.001541,416.667572 253.478546,383.489166 
	C270.293549,383.001099 286.635040,383.002533 302.976562,383.003937 
z"/>
<path fill="#232D4E" opacity="1.000000" stroke="none" 
	d="
M238.438416,307.744141 
	C238.190994,297.276245 238.222427,286.557404 238.251312,275.419647 
	C238.683334,275.229340 239.467606,275.414612 239.502106,275.692810 
	C240.820358,286.328003 242.298828,296.977692 238.438416,307.744141 
z"/>
<path fill="#1B2D55" opacity="1.000000" stroke="none" 
	d="
M155.781525,196.514221 
	C148.956451,196.890503 141.924500,196.936279 134.463928,196.903961 
	C141.130249,193.766205 148.334930,194.387909 155.781525,196.514221 
z"/>
<path fill="#21AD5E" opacity="1.000000" stroke="none" 
	d="
M402.042816,353.519348 
	C402.378143,354.785461 402.947327,356.512421 402.957642,358.242706 
	C403.032684,370.847931 402.995300,383.453796 402.779633,396.527954 
	C402.565826,396.996429 402.144257,396.992584 402.144287,396.992584 
	C402.102173,382.655640 402.060059,368.318726 402.042816,353.519348 
z"/>
<path fill="#21AD5E" opacity="1.000000" stroke="none" 
	d="
M402.038757,317.516388 
	C402.377441,319.100159 402.958374,321.146973 402.955841,323.193085 
	C402.944946,331.914642 402.761505,340.635925 402.354492,349.649414 
	C402.049500,339.287384 402.031036,328.633240 402.038757,317.516388 
z"/>
<path fill="#1FAC5A" opacity="1.000000" stroke="none" 
	d="
M402.043640,416.516174 
	C402.259949,424.152161 402.451538,432.250854 402.360046,440.643250 
	C402.057617,432.950958 402.038269,424.964935 402.043640,416.516174 
z"/>
<path fill="#1FAC5A" opacity="1.000000" stroke="none" 
	d="
M402.048096,400.462036 
	C402.244873,401.536285 402.414246,403.017365 402.325592,404.723511 
	C402.051971,403.588684 402.036346,402.228760 402.048096,400.462036 
z"/>
<path fill="#1FAC5A" opacity="1.000000" stroke="none" 
	d="
M402.043030,409.437592 
	C402.235962,410.209656 402.404388,411.370758 402.325348,412.737335 
	C402.058075,411.904083 402.038300,410.865356 402.043030,409.437592 
z"/>
<path fill="#1FAC5A" opacity="1.000000" stroke="none" 
	d="
M402.098907,397.233185 
	C402.144257,396.992584 402.565826,396.996429 402.776459,396.996399 
	C402.907257,397.308258 402.740295,397.562988 402.278809,397.861847 
	C402.071442,397.963135 402.053558,397.473785 402.098907,397.233185 
z"/>
<path fill="#1FAC5A" opacity="1.000000" stroke="none" 
	d="
M402.047974,443.267609 
	C402.227661,443.190369 402.404053,443.334656 402.538391,443.510956 
	C402.565613,443.546661 402.433868,443.703400 402.219177,443.885315 
	C402.062927,443.966309 402.029816,443.500427 402.047974,443.267609 
z"/>
<path fill="#029738" opacity="1.000000" stroke="none" 
	d="
M302.979675,382.765564 
	C286.635040,383.002533 270.293549,383.001099 253.485657,383.023529 
	C254.730606,382.700348 256.440369,382.061340 258.153503,382.052185 
	C272.783813,381.974030 287.414764,382.010071 302.511414,382.031250 
	C302.977325,382.050537 302.982819,382.527222 302.979675,382.765564 
z"/>
<path fill="#054E79" opacity="1.000000" stroke="none" 
	d="
M79.038536,282.395172 
	C79.895882,271.205109 84.719101,261.530853 90.959122,252.550659 
	C93.729240,248.564056 97.174294,244.966644 100.705315,241.604630 
	C108.966705,233.738663 118.589012,228.657974 129.845474,225.755859 
	C141.734695,222.690582 153.183029,224.631912 164.791565,226.049103 
	C166.867371,226.302536 168.826416,227.817444 170.757523,228.896393 
	C178.081512,232.988495 186.326324,235.609146 191.687851,242.792526 
	C194.147781,246.088364 197.615646,248.634125 200.059891,251.939041 
	C214.586716,271.581177 217.033173,293.238312 208.384476,315.610382 
	C202.645447,330.455841 192.626022,342.449921 178.115921,350.156342 
	C171.727951,353.549011 165.000092,355.390472 158.055313,357.338043 
	C142.204666,361.783112 127.613724,358.897736 114.116180,351.211487 
	C98.176552,342.134521 86.229691,329.029114 80.976128,310.059082 
	C80.601799,308.203766 80.225189,307.105408 79.848579,306.007050 
	C79.848579,306.007050 79.950455,306.034424 79.967865,305.624481 
	C79.669693,297.608093 79.354111,290.001617 79.038536,282.395172 
M152.151077,254.032425 
	C138.454514,254.896225 126.252846,258.954407 116.809380,269.645111 
	C107.155449,280.574066 105.589432,299.257385 113.118774,311.385803 
	C124.645325,329.952911 151.598892,334.297089 168.494293,321.500916 
	C183.127014,310.418518 186.213730,292.951904 181.816071,277.493622 
	C181.497818,276.374908 179.826965,275.641052 178.886673,273.973083 
	C183.062607,262.470642 177.988693,254.114182 166.386978,250.762375 
	C160.597977,249.089905 157.197510,251.917694 152.151077,254.032425 
z"/>
<path fill="#404157" opacity="1.000000" stroke="none" 
	d="
M78.826569,282.709473 
	C79.354111,290.001617 79.669693,297.608093 79.945526,305.672241 
	C79.475388,298.427917 79.044991,290.725861 78.826569,282.709473 
z"/>
<path fill="#404157" opacity="1.000000" stroke="none" 
	d="
M79.835449,306.378357 
	C80.225189,307.105408 80.601799,308.203766 80.953903,309.675293 
	C80.560379,308.948853 80.191353,307.849243 79.835449,306.378357 
z"/>
<path fill="#043656" opacity="1.000000" stroke="none" 
	d="
M178.785004,274.728241 
	C179.826965,275.641052 181.497818,276.374908 181.816071,277.493622 
	C186.213730,292.951904 183.127014,310.418518 168.494293,321.500916 
	C151.598892,334.297089 124.645325,329.952911 113.118774,311.385803 
	C105.589432,299.257385 107.155449,280.574066 116.809380,269.645111 
	C126.252846,258.954407 138.454514,254.896225 152.471680,254.371552 
	C151.342148,257.540039 149.399872,260.229401 148.546829,263.228577 
	C146.894440,269.038239 148.256805,274.556976 153.077148,278.306152 
	C157.697159,281.899475 162.735123,286.432861 169.192154,282.856903 
	C172.787582,280.865692 175.612717,277.483551 178.785004,274.728241 
z"/>
<path fill="#FDFCFC" opacity="1.000000" stroke="none" 
	d="
M178.835846,274.350647 
	C175.612717,277.483551 172.787582,280.865692 169.192154,282.856903 
	C162.735123,286.432861 157.697159,281.899475 153.077148,278.306152 
	C148.256805,274.556976 146.894440,269.038239 148.546829,263.228577 
	C149.399872,260.229401 151.342148,257.540039 152.906387,254.377014 
	C157.197510,251.917694 160.597977,249.089905 166.386978,250.762375 
	C177.988693,254.114182 183.062607,262.470642 178.835846,274.350647 
z"/>
</svg>